<?xml version="1.0" encoding="UTF-8" standalone="no"?>
<svg
   shape-rendering="geometricPrecision"
   text-rendering="geometricPrecision"
   image-rendering="optimizeQuality"
   fill-rule="evenodd"
   clip-rule="evenodd"
   width="32"
   heigth="32"
   viewBox="0 0 512 512"
   version="1.1"
   id="svg2"
   xmlns="http://www.w3.org/2000/svg"
   xmlns:svg="http://www.w3.org/2000/svg">
  <path style="fill:#000000;stroke-width:0.658945"
     d="m 323.81202,387.18398 c -5.422,-1.3649 -11.80595,-4.95316 -24.99168,-14.04717 -6.20435,-4.27905 -23.45183,-15.95641 -38.32773,-25.94969 -14.8759,-9.99327 -28.61205,-19.40661 -30.52477,-20.91854 -6.96085,-5.50222 -9.06545,-11.82038 -5.96306,-17.90155 1.95098,-3.82425 9.77428,-11.75484 34.21189,-34.68109 25.13888,-23.58414 48.87572,-46.84668 51.51135,-50.48204 2.09043,-2.88337 2.36449,-5.07144 0.82768,-6.60825 -1.73057,-1.73057 -4.90973,-1.19249 -10.16657,1.72073 -2.71815,1.50633 -28.21931,18.299 -56.66924,37.31704 -29.25222,19.55434 -54.04477,35.675 -57.06126,37.10246 -9.4025,4.44946 -15.37052,5.29457 -25.18803,3.56683 -11.7512,-2.06806 -45.823,-12.29304 -52.91327,-15.87932 -7.77534,-3.9328 -8.658445,-10.09595 -2.23308,-15.58456 2.75166,-2.3505 11.03736,-6.17869 50.74442,-23.44515 104.75344,-45.55161 164.01812,-70.21519 189.10202,-78.69666 10.18877,-3.44507 12.67765,-4.0446 17.7915,-4.28566 5.2657,-0.24823 6.28027,-0.10497 8.87228,1.2528 1.60967,0.84319 3.48023,2.29412 4.1568,3.22429 2.18242,3.00042 2.83496,9.45999 1.90823,18.88954 -3.61421,36.77445 -26.31096,174.99184 -31.11513,189.48308 -4.70338,14.18722 -11.89406,18.96342 -23.97235,15.92291 z"
     id="path8" />
</svg>
